<?xml version="1.0" encoding="iso-8859-1"?>
<!-- Uploaded to: SVG Repo, www.svgrepo.com, Generator: SVG Repo Mixer Tools -->
<svg fill="#000000" height="800px" width="800px" version="1.1" id="Layer_1" xmlns="http://www.w3.org/2000/svg" xmlns:xlink="http://www.w3.org/1999/xlink" 
	 viewBox="0 0 512 512" xml:space="preserve">
<g>
	<g>
		<path d="M511.989,204.693c0-2.586-1.245-5.075-3.456-6.599L264.017,29.461V8.017C264.017,3.589,260.427,0,256,0
			s-8.017,3.589-8.017,8.017v21.444L3.465,198.094c-2.21,1.524-3.455,4.014-3.456,6.599H0v17.102c0,4.427,3.589,8.017,8.017,8.017
			c4.427,0,8.017-3.589,8.017-8.017v-9.086h52.376v9.086c0,4.427,3.589,8.017,8.017,8.017s8.017-3.589,8.017-8.017v-9.086h69.478
			v9.086c0,4.427,3.589,8.017,8.017,8.017s8.017-3.589,8.017-8.017v-9.086h6.658l71.371,47.581v243.693
			c0,4.427,3.589,8.017,8.017,8.017s8.017-3.589,8.017-8.017V260.291l71.371-47.581h6.658v9.086c0,4.427,3.589,8.017,8.017,8.017
			s8.017-3.589,8.017-8.017v-9.086h69.478v9.086c0,4.427,3.589,8.017,8.017,8.017c4.427,0,8.017-3.589,8.017-8.017v-9.086h52.376
			v9.086c0,4.427,3.589,8.017,8.017,8.017c4.427,0,8.017-3.589,8.017-8.017v-17.102H511.989z M73.219,196.676H33.761l143.035-98.644
			L73.219,196.676z M157.197,196.676H96.468L223.999,75.217L157.197,196.676z M247.983,241.021l-42.466-28.311h42.466V241.021z
			 M247.983,196.676h-72.487l72.487-131.796V196.676z M264.017,241.021V212.71h42.466L264.017,241.021z M264.017,196.676V64.881
			l72.487,131.796H264.017z M354.803,196.676L288.001,75.217l127.532,121.459H354.803z M438.781,196.676L335.204,98.032
			l143.035,98.644H438.781z"/>
	</g>
</g>
</svg>