<svg width="1525" height="696" viewBox="0 0 1525 696" fill="none" xmlns="http://www.w3.org/2000/svg">
<path d="M1144.7 4.93329C1148.04 12.4 1150.06 23.3333 1150.18 34.9333C1150.3 43.8666 1149.95 45.6 1147.68 48.1333C1145.42 50.8 1144.58 50.9333 1141.96 49.6C1138.15 47.6 1135.77 41.3333 1133.5 27.4666C1130.29 6.79995 1131.72 -4.73891e-05 1139.34 -4.73891e-05C1141.84 -4.73891e-05 1143.04 1.06662 1144.7 4.93329Z" fill="#E0E7E6"/>
<path d="M1210.35 8.93333C1212.26 16.2667 1212.02 20.4 1209.16 28.6667C1206.42 37.0667 1194.98 52 1191.29 52C1187.36 52 1186.28 47.3333 1188.43 39.0667C1192.36 24 1203.2 4 1207.61 4C1208.44 4 1209.75 6.26666 1210.35 8.93333Z" fill="#E0E7E6"/>
<path d="M1088.35 47.4667C1097.64 54.4 1106.82 63.7333 1106.82 66.1333C1106.82 69.0667 1103.12 72 1099.55 72C1094.78 72 1089.9 69.0667 1080.37 60.5333C1070.72 51.8667 1069.53 48.6667 1073.93 44.4C1075.72 42.6667 1077.87 41.3333 1078.58 41.3333C1079.41 41.3333 1083.82 44.1333 1088.35 47.4667Z" fill="#E0E7E6"/>
<path d="M1250.26 47.6002C1253.84 51.7336 1241.68 66.4002 1228.34 73.8669C1216.43 80.4002 1210.47 80.2669 1210.47 73.3336C1210.47 68.8002 1215.83 62.6669 1224.77 57.2002C1234.77 51.0669 1248.59 45.8669 1250.26 47.6002Z" fill="#E0E7E6"/>
<path d="M1179.25 56.1334C1189.14 62.4001 1202.37 77.2001 1206.66 86.9335C1210.71 95.8668 1214.04 110.4 1214.04 119.6C1214.04 140.8 1203.32 160.533 1186.88 169.067C1180.56 172.4 1179.02 172.667 1165.2 172.533C1152.45 172.4 1148.99 171.867 1141.72 169.067C1122.3 161.333 1109.08 150.267 1103 136.267C1099.19 127.733 1099.07 126.8 1099.07 111.333C1099.19 93.8668 1100.62 87.8668 1107.41 78.9335C1116.94 66.1334 1136.72 62.6668 1151.85 70.9335C1159.48 75.2001 1171.15 87.7335 1175.2 96.0001C1179.85 105.467 1179.25 115.467 1173.54 128.4C1168.41 140.133 1165.79 141.733 1152.69 141.067C1144.46 140.8 1142.2 140.133 1137.91 136.933C1132.07 132.667 1127.07 122.267 1127.07 114.667C1127.07 104.4 1135.17 96.5335 1144.58 97.7335C1153.4 98.8001 1156.74 105.067 1153.04 114C1151.14 118.8 1152.8 119.733 1156.38 115.733C1158.52 113.467 1159.71 110.4 1160.07 106.4C1160.55 101.467 1160.19 99.8668 1157.57 96.4001C1152.8 90.0001 1142.56 84.9335 1134.81 84.9335C1129.69 84.9335 1127.31 85.7335 1123.73 88.5335C1117.18 93.6001 1115.87 96.9335 1116.71 106.8C1118.49 129.867 1137.44 150.667 1158.4 152.933C1169.37 154 1176.75 151.067 1183.54 142.533C1196.29 126.667 1192.84 100.8 1175.56 83.2001C1171.63 79.2001 1167.94 76.0001 1167.34 76.0001C1165.67 76.0001 1161.62 65.4668 1161.62 60.9334C1161.62 51.4668 1168.89 49.4668 1179.25 56.1334Z" fill="#E0E7E6"/>
<path d="M878.662 79.0666C880.568 82.2666 881.283 82.6666 885.096 81.8666C887.479 81.3333 889.742 80.2666 890.219 79.4666C890.934 78.4 891.172 78.4 891.172 79.4666C891.172 80.4 893.197 81.4666 895.58 82C898.082 82.4 901.775 84 903.92 85.3333C907.613 87.7333 907.732 87.7333 909.4 84.9333C910.354 83.3333 911.545 82.4 912.021 82.9333C912.498 83.4666 912.021 85.2 911.068 86.8C909.281 89.4666 909.4 90 912.26 94.1333C916.072 99.8666 919.766 113.067 919.766 121.467C919.766 127.867 919.885 128 923.221 128C928.225 128 928.939 130.4 924.293 130.933C922.148 131.2 920.48 131.733 920.6 132.267C920.838 132.933 920.957 142.4 920.957 153.467V173.6L924.531 172.933C926.438 172.4 928.344 172.667 928.701 173.333C929.059 174 927.51 174.933 925.127 175.467C921.791 176.133 920.957 176.933 920.957 179.467C920.957 182.533 921.314 182.667 928.225 182.667C932.633 182.667 935.135 183.2 934.658 184C934.301 184.667 931.799 185.333 929.297 185.333C926.795 185.333 923.936 185.6 923.102 186C920.719 187.067 921.791 194.4 924.412 195.067C926.08 195.6 926.08 195.733 924.174 195.867C922.387 196 922.148 197.733 922.148 211.333C922.148 224.133 922.506 226.667 923.936 226.667C924.889 226.667 925.723 227.2 925.723 228C925.723 228.667 924.889 229.333 923.936 229.333C922.387 229.333 922.148 232.533 922.148 250C922.148 269.733 922.268 270.667 924.531 270.667C927.629 270.667 927.629 272.8 924.412 273.733C922.625 274.267 922.029 275.333 922.387 277.467C922.625 280 923.578 280.533 926.914 280.533C932.752 280.667 932.752 283.2 926.914 283.733C922.625 284.133 922.148 284.533 922.148 287.867C922.148 289.867 922.744 292.133 923.459 292.933C924.174 293.733 924.293 294.667 923.697 295.067C923.221 295.467 922.863 310.667 923.102 329.067L923.459 362.4L934.658 355.467L945.977 348.667V325.2C945.977 303.067 946.096 301.467 948.836 295.333C951.219 290.267 951.457 288.533 950.385 286.533C948.598 283.333 950.266 281.6 952.768 284.4C954.555 286.4 955.031 286.4 958.367 284.4C960.393 283.2 964.682 281.467 968.018 280.667C972.664 279.467 974.094 278.533 974.689 275.867L975.523 272.667L975.643 276.133C975.762 279.067 976.715 280 981.123 281.867C985.889 284 991.727 289.867 994.586 295.467C995.42 297.2 996.135 297.333 998.279 296C999.709 295.2 1001.5 294.8 1002.33 295.067C1003.16 295.333 1002.09 296.533 1000.19 297.6C996.73 299.6 996.611 300 996.969 307.733L997.445 315.733L1021.39 302C1051.06 284.933 1068.93 276.267 1091.33 268C1140.06 250 1177.71 249.067 1221.31 264.8C1228.22 267.333 1234.65 269.333 1235.61 269.333C1236.56 269.333 1239.06 265.2 1241.09 260.133C1243.83 253.733 1246.93 249.067 1251.57 244.267C1257.41 238.267 1258.12 237.067 1256.93 234.667C1255.38 231.467 1257.41 230.933 1259.08 234.133C1260.03 236 1260.75 236.133 1264.56 234.667C1266.94 233.867 1268.85 233.067 1268.85 232.933C1268.85 232.8 1268.37 230.533 1267.66 228C1266.58 223.733 1266.7 223.6 1268.25 225.867C1269.21 227.333 1270.04 229.333 1270.04 230.267C1270.04 231.467 1272.06 232 1277.19 232C1285.29 232 1295.18 236.267 1302.56 242.8L1307.09 246.933L1311.86 243.2C1318.17 238.4 1319.01 239.867 1313.05 245.6C1308.64 249.733 1308.4 250.4 1309.95 252.8C1312.45 256.933 1316.15 270.4 1317.1 278.933C1317.81 286.133 1318.05 286.667 1321.03 286.8L1324.25 286.933L1320.91 288.4C1318.77 289.333 1317.7 290.8 1317.7 292.933C1317.7 295.733 1318.17 296 1323.65 296C1331.63 296 1331.28 298.133 1323.06 299.333C1316.86 300.133 1316.5 300.4 1316.5 304C1316.5 306.933 1317.1 308 1319.12 308.4L1321.87 308.933L1319.12 310C1317.46 310.667 1316.5 312 1316.5 313.867C1316.5 316.133 1319.84 319.333 1330.92 327.733C1338.78 333.733 1346.05 338.667 1347 338.667C1347.96 338.667 1348.67 337.333 1348.67 335.6C1348.79 332.933 1348.91 332.8 1350.34 334.933C1351.29 336.4 1353.56 337.333 1355.94 337.333C1358.2 337.467 1362.02 338.267 1364.52 339.2C1368.81 340.933 1369.04 340.933 1371.43 337.067C1374.53 332.267 1375.72 333.067 1373.33 338.133C1371.67 341.733 1371.67 342 1377.15 347.467C1382.39 352.8 1389.18 365.333 1389.18 369.867C1389.18 371.2 1390.25 372 1391.8 372.133C1393.83 372.267 1394.06 372.4 1392.52 372.933C1388.7 374 1390.25 376.933 1398.83 384.667C1427.3 410.4 1468.65 452.933 1499.74 488.667L1521.43 513.467V543.467C1521.43 568.8 1521.66 573.6 1523.21 574.133C1524.76 574.8 1525 582.933 1525 635.467V696H762.5H0V562.8V429.6L19.3008 412.267C111.516 330.133 208.258 266.933 278.074 243.333C306.072 234 319.654 231.467 344.316 231.467C362.426 231.467 368.502 232 378.391 234.4C406.031 241.067 438.914 257.067 471.797 279.733L489.072 291.733L491.098 287.867C492.289 285.733 495.982 281.067 499.318 277.467C504.68 271.733 505.275 270.667 504.084 268.133C502.416 264.667 504.322 264.4 506.467 267.867C508.016 270.133 508.492 270.133 511.947 268.533C515.402 266.933 515.641 266.4 514.688 262.667C514.092 260.533 514.092 258.667 514.688 258.667C515.283 258.667 515.998 260.267 516.355 262.267C517.07 265.867 517.428 266 524.695 266.133C530.771 266.133 533.988 267.067 539.945 270.4C544.115 272.667 548.762 276 550.311 277.867L553.17 281.2L558.293 277.067C565.084 271.6 566.156 272.933 560.08 279.067L555.434 283.733L557.816 289.2C561.033 296.4 563.535 307.467 563.535 314.267C563.535 319.867 563.654 320 567.348 320.133L571.279 320.267L567.348 322.133C564.846 323.333 563.535 324.933 563.535 326.667C563.535 328.933 564.369 329.333 568.301 329.333C572.947 329.333 573.066 329.2 573.066 324.8C573.066 322.267 573.543 318.667 574.258 316.8C574.973 314.533 574.973 313.333 574.258 313.333C573.543 313.333 573.066 312.667 573.066 312C573.066 311.2 573.781 310.667 574.496 310.667C575.33 310.667 577.236 308.267 578.785 305.2C581.764 299.6 589.984 292.667 595.822 291.333C598.443 290.667 599.277 289.733 599.277 287.2C599.277 285.333 599.754 284.267 600.469 284.667C601.064 285.067 601.66 286.533 601.66 287.867C601.66 289.6 603.209 290.667 607.26 291.733C610.477 292.533 613.812 293.467 614.885 294C616.434 294.667 617.625 293.333 619.65 289.467C621.08 286.4 622.748 284 623.344 284C624.773 284 624.535 284.8 621.795 290.933L619.293 296.267L624.178 301.733C626.918 304.667 630.373 310.267 632.041 314.267C634.9 320.933 635.377 321.333 639.547 321.333C642.764 321.333 643.479 321.733 642.168 322.667C641.215 323.333 639.07 324 637.521 324C635.615 324 635.02 324.533 635.496 326C635.854 327.067 636.449 334.267 636.926 342L637.76 356H641.691C643.836 356 645.98 356.533 646.338 357.333C646.814 358.133 645.146 358.667 642.287 358.667C639.547 358.667 637.402 359.2 637.402 360C637.402 360.667 638.475 361.333 639.666 361.333C640.977 361.333 642.406 361.867 642.764 362.667C643.121 363.467 642.168 364 640.5 364C637.998 364 637.402 364.8 636.926 368.267C636.688 370.667 635.854 377.067 635.139 382.4C634.424 387.733 633.828 392.933 633.828 394.133C633.828 398.133 669.57 414.667 693.279 421.467C712.342 426.933 728.068 429.333 747.012 429.333C761.785 429.333 776.201 427.733 777.75 426C778.107 425.6 778.584 420.533 778.941 414.8C779.418 405.333 779.299 404.133 777.273 403.6C775.248 403.067 775.248 402.933 777.512 402.8C779.299 402.667 780.371 401.2 781.443 397.067C783.469 389.6 787.4 382.933 793.357 376.933C798.242 372 798.242 371.867 796.336 368.667C795.264 366.8 794.668 364.8 795.145 364.267C795.621 363.733 796.574 364.267 797.051 365.333C800.148 370.933 800.148 370.933 804.914 369.467C807.535 368.667 811.348 368 813.611 368C815.994 368 818.258 367.067 819.211 365.6C820.641 363.467 820.76 363.467 820.879 366.133C820.879 368.133 821.832 369.333 823.977 369.867C828.266 371.067 836.844 380.4 839.346 386.533C840.895 390.4 842.324 392 844.588 392.4C847.686 392.933 847.686 392.933 844.945 394C842.562 394.8 842.324 395.6 843.039 399.867C843.516 402.533 843.992 404.933 844.23 405.2C844.707 405.733 858.289 399.6 861.268 397.467C862.578 396.533 863.055 390.533 863.531 370.4L864.127 344.533L852.57 342.933C839.822 341.2 834.104 338.533 826.717 331.067C820.521 324.8 810.99 308.8 807.773 299.067C804.08 288.267 803.246 271.333 805.867 263.467C808.369 256 815.756 248.4 821.594 247.2C827.432 246 837.082 248.667 841.967 252.8C847.328 257.333 849.234 263.067 850.664 279.733C852.094 295.067 855.072 304.267 859.838 307.733L862.578 309.6V254.933V200.133L857.098 195.2C850.902 189.467 851.975 187.2 858.289 192.667L862.34 196.133L862.816 152.4C863.174 111.867 863.412 108.133 865.795 100.667C867.82 94.4 868.059 92.2666 866.986 90.8C865.795 89.2 865.914 88.9333 867.701 89.7333C869.131 90.4 871.275 89.4666 873.896 87.0666C877.113 84.1333 877.709 83.0666 876.756 80.9333C874.73 76.8 876.279 75.2 878.662 79.0666ZM565.203 333.333C563.297 333.333 562.463 334.267 562.105 337.333C561.629 340.8 561.986 341.333 564.369 341.333C566.037 341.333 566.871 341.867 566.514 342.667C566.156 343.333 564.727 344 563.416 344C562.225 344 561.152 344.533 561.152 345.333C561.152 346.8 575.33 357.867 576.164 356.933C576.521 356.533 576.402 353.2 575.926 349.333C575.33 344.133 574.496 342.133 572.59 341.333C570.445 340.267 570.326 340.133 572.352 340.133C573.781 340 574.258 339.333 573.781 337.867C573.424 336.667 573.066 334.8 573.066 333.733C573.066 332.267 572.352 331.867 570.326 332.533C568.896 332.933 566.514 333.333 565.203 333.333Z" fill="#E0E7E6"/>
<path d="M1064.52 98.7998C1074.17 100.4 1087.16 104.8 1088.95 107.2C1091.21 110.4 1089.9 113.866 1085.13 116.666C1081.08 119.066 1080.13 119.066 1070.36 117.6C1064.64 116.666 1056.42 114.533 1052.13 112.933C1044.74 110.133 1044.27 109.733 1043.91 105.6C1043.2 97.1998 1047.01 95.9998 1064.52 98.7998Z" fill="#E0E7E6"/>
<path d="M1253.84 102.667C1258.24 104.134 1261.7 107.734 1261.7 110.8C1261.7 117.734 1242.16 122.134 1227.27 118.534C1216.19 115.867 1214.16 107.867 1223.57 103.734C1229.41 101.334 1247.64 100.667 1253.84 102.667Z" fill="#E0E7E6"/>
<path d="M1096.57 142.133C1100.62 146.533 1098.95 150.4 1090.38 156.533C1076.79 166.267 1063.81 173.467 1060.59 173.067C1057.37 172.667 1054.75 167.067 1055.94 163.467C1056.78 161.067 1077.98 144.533 1083.46 142C1088.95 139.467 1094.31 139.467 1096.57 142.133Z" fill="#E0E7E6"/>
<path d="M1224.65 153.467C1230.84 156.533 1239.54 164.133 1242.28 168.8C1243.71 171.333 1243.83 172.4 1242.64 174C1236.56 182.133 1208.44 162.133 1212.97 152.933C1214.52 150 1218.21 150.133 1224.65 153.467Z" fill="#E0E7E6"/>
<path d="M1122.19 171.467C1124.57 173.333 1124.93 174.533 1124.33 179.6C1123.5 188.133 1117.42 200.8 1109.79 210.4C1102.65 219.2 1099.19 220.667 1095.74 216.267C1092.76 212.667 1093.12 210.4 1099.31 194.933C1105.27 180 1112.65 169.333 1117.06 169.333C1118.37 169.333 1120.64 170.267 1122.19 171.467Z" fill="#E0E7E6"/>
<path d="M1191.41 182.266C1200.34 193.6 1207.25 217.066 1202.96 221.2C1195.81 227.733 1176.87 194.266 1179.97 180.666C1181.16 175.333 1186.64 176.133 1191.41 182.266Z" fill="#E0E7E6"/>
<path d="M1154.12 186.933C1155.54 190.133 1156.26 195.6 1156.62 206.667C1157.09 225.2 1155.43 232.4 1150.54 233.067C1145.54 233.733 1143.39 227.467 1142.8 210.933C1142.2 196 1144.23 186.533 1148.52 184C1151.61 182.133 1151.85 182.133 1154.12 186.933Z" fill="#E0E7E6"/>
</svg>
