<?xml version="1.0" encoding="iso-8859-1"?>
<!-- Uploaded to: SVG Repo, www.svgrepo.com, Generator: SVG Repo Mixer Tools -->
<svg fill="currentcolor" height="800px" width="800px" version="1.1" id="Layer_1" xmlns="http://www.w3.org/2000/svg" xmlns:xlink="http://www.w3.org/1999/xlink" 
	 viewBox="0 0 511.999 511.999" xml:space="preserve">
<g>
	<g>
		<path d="M489.136,455.176h-48.03l-74.134-74.133c-4.324-4.324-10.188-6.753-16.303-6.753h-71.612V272.026
			c32.574,0,136.983,0,168.239,0c23.443,0,24.383-23.666,24.383-45.638c0-118.926-96.754-215.679-215.679-215.679
			S40.319,107.462,40.319,226.388c0,22.028,0.904,45.638,24.381,45.638c31.264,0,135.718,0,168.241,0V374.29h-78.068l-52.428-52.427
			c-21.542-21.546-54.174,11.04-32.608,32.608l52.427,52.427v48.278H22.863c-30.468,0-30.5,46.115,0,46.115h466.274
			C519.604,501.291,519.636,455.176,489.136,455.176z M232.941,455.176H168.38v-34.771h64.561V455.176z M425.565,225.911h-51.844
			c-0.061-53.925-10.443-104.976-29.255-144.125C392.946,111.557,425.394,165.007,425.565,225.911z M138.278,225.911H86.434
			c0.169-60.904,32.619-114.353,81.099-144.123C148.722,120.937,138.34,171.987,138.278,225.911z M184.387,225.911
			c0.123-100.163,39.242-169.088,71.612-169.088c32.336,0,71.486,68.833,71.612,169.088H184.387z M279.056,455.176v-34.771h62.061
			l34.771,34.771H279.056z"/>
	</g>
</g>
</svg>