<?xml version="1.0" encoding="iso-8859-1"?>
<!-- Uploaded to: SVG Repo, www.svgrepo.com, Generator: SVG Repo Mixer Tools -->
<svg fill="currentcolor" height="800px" width="800px" version="1.1" id="Layer_1" xmlns="http://www.w3.org/2000/svg" xmlns:xlink="http://www.w3.org/1999/xlink" 
	 viewBox="0 0 476 476" xml:space="preserve">
<g>
	<g>
		<g>
			<path d="M428.7,1h-0.4c-15.329,0-27.8,12.471-27.8,27.8v315.01c0,28.778-23.412,52.19-52.19,52.19h-59.62
				c-28.778,0-52.19-23.412-52.19-52.19v-2.844c20.521-0.707,37-17.61,37-38.3V298c0-4.418-3.582-8-8-8h-110c-4.419,0-8,3.582-8,8
				v4.667c0,19.327,14.38,35.35,33,37.954v3.189c0,59.656,48.534,108.19,108.19,108.19h59.62c59.656,0,108.19-48.534,108.19-108.19
				V28.8C456.5,13.471,444.029,1,428.7,1z M185.833,325c-11.182,0-20.471-8.261-22.085-19h93.504c-1.614,10.739-10.903,19-22.086,19
				H228.5h-40H185.833z M440.5,343.81c0,50.833-41.356,92.19-92.19,92.19h-59.62c-50.834,0-92.19-41.356-92.19-92.19V341h24v2.81
				c0,37.6,30.59,68.19,68.19,68.19h59.62c37.6,0,68.19-30.59,68.19-68.19V28.8c0-6.506,5.293-11.8,11.8-11.8h0.4
				c6.506,0,11.8,5.294,11.8,11.8V343.81z"/>
			<path d="M125.5,354c0-15.991-13.009-29-29-29c-15.991,0-29,13.009-29,29c0,15.991,13.009,29,29,29
				C112.491,383,125.5,369.991,125.5,354z M96.5,367c-7.169,0-13-5.831-13-13c0-7.168,5.831-13,13-13s13,5.832,13,13
				C109.5,361.169,103.669,367,96.5,367z"/>
			<path d="M142.5,390c-23.71,0-43,19.29-43,43c0,23.71,19.29,43,43,43s43-19.29,43-43C185.5,409.29,166.21,390,142.5,390z
				 M142.5,460c-14.888,0-27-12.112-27-27s12.112-27,27-27s27,12.112,27,27S157.388,460,142.5,460z"/>
			<path d="M327.5,220c16.542,0,30-13.458,30-30s-13.458-30-30-30s-30,13.458-30,30S310.958,220,327.5,220z M327.5,176
				c7.72,0,14,6.28,14,14c0,7.72-6.28,14-14,14c-7.72,0-14-6.28-14-14C313.5,182.28,319.78,176,327.5,176z"/>
			<path d="M115.55,283c34.435,0,62.45-28.015,62.45-62.45v-0.85c0-11.965,9.735-21.7,21.7-21.7h0.6c11.965,0,21.7,9.735,21.7,21.7
				v0.85c0,34.435,28.015,62.45,62.45,62.45h0.478c2.651,16.972,17.368,30,35.072,30c19.575,0,35.5-15.925,35.5-35.5
				c0-3.143-0.415-6.19-1.186-9.094c15.932-12.52,26.186-31.952,26.186-53.74V140.5v-40c0-4.418-3.582-8-8-8h-345
				c-4.419,0-8,3.582-8,8v40v74.167C19.5,252.346,50.154,283,87.834,283H115.55z M320,297c-10.752,0-19.5-8.748-19.5-19.5
				S309.248,258,320,258s19.5,8.748,19.5,19.5S330.752,297,320,297z M35.5,108.5h329v24h-329V108.5z M35.658,218.529
				c-0.094-1.277-0.158-2.562-0.158-3.862V148.5h70.187L35.658,218.529z M40.298,236.516l88.016-88.016h17.373l-98.756,98.756
				C44.31,243.973,42.077,240.371,40.298,236.516z M168.314,148.5H364.5v66.167c0,15.68-6.939,29.763-17.901,39.36
				C340.09,246.659,330.581,242,320,242c-15.921,0-29.427,10.535-33.914,25h-1.636c-25.613,0-46.45-20.837-46.45-46.45v-0.85
				c0-20.788-16.912-37.7-37.7-37.7h-0.6c-20.788,0-37.7,16.912-37.7,37.7v0.85c0,25.613-20.837,46.45-46.45,46.45H87.834
				c-10.777,0-20.803-3.277-29.137-8.883L168.314,148.5z"/>
			<path d="M170.5,76c20.953,0,38-17.047,38-38s-17.047-38-38-38s-38,17.047-38,38S149.547,76,170.5,76z M170.5,16
				c12.131,0,22,9.869,22,22s-9.869,22-22,22s-22-9.869-22-22S158.369,16,170.5,16z"/>
		</g>
	</g>
</g>
</svg>