<?xml version="1.0" encoding="iso-8859-1"?>
<!-- Uploaded to: SVG Repo, www.svgrepo.com, Generator: SVG Repo Mixer Tools -->
<svg fill="#000000" height="800px" width="800px" version="1.1" id="Layer_1" xmlns="http://www.w3.org/2000/svg" xmlns:xlink="http://www.w3.org/1999/xlink" 
	 viewBox="0 0 512 512" xml:space="preserve">
<g>
	<g>
		<path d="M175.156,11.107c-0.18-0.87-0.442-1.739-0.787-2.582c-0.345-0.828-0.773-1.629-1.27-2.374
			c-0.497-0.759-1.077-1.465-1.712-2.1c-0.635-0.635-1.353-1.215-2.098-1.726c-0.745-0.496-1.56-0.925-2.388-1.27
			c-0.828-0.345-1.698-0.606-2.582-0.786c-1.781-0.36-3.617-0.36-5.398,0c-0.884,0.18-1.753,0.44-2.582,0.786
			c-0.828,0.345-1.629,0.774-2.388,1.27c-0.745,0.511-1.463,1.091-2.098,1.726c-0.635,0.635-1.201,1.341-1.712,2.1
			c-0.497,0.745-0.925,1.546-1.27,2.374c-0.345,0.842-0.607,1.712-0.787,2.582c-0.179,0.897-0.262,1.808-0.262,2.706
			c0,3.631,1.463,7.193,4.031,9.76c0.636,0.634,1.354,1.214,2.098,1.71c0.759,0.497,1.56,0.926,2.388,1.271
			c0.828,0.345,1.698,0.606,2.582,0.786c0.897,0.179,1.795,0.276,2.706,0.276c0.897,0,1.808-0.097,2.692-0.276
			c0.884-0.18,1.753-0.44,2.582-0.786c0.828-0.345,1.643-0.774,2.388-1.271c0.745-0.496,1.463-1.075,2.098-1.71
			c2.568-2.568,4.031-6.13,4.031-9.76C175.418,12.916,175.335,12.005,175.156,11.107z"/>
	</g>
</g>
<g>
	<g>
		<path d="M363.916,11.107c-0.18-0.87-0.442-1.739-0.787-2.582c-0.345-0.828-0.773-1.629-1.27-2.374
			c-0.511-0.759-1.077-1.465-1.726-2.1c-3.203-3.217-7.966-4.68-12.452-3.781c-0.885,0.18-1.755,0.44-2.582,0.786
			c-0.83,0.345-1.643,0.774-2.388,1.27c-0.745,0.511-1.463,1.091-2.098,1.726c-0.635,0.635-1.215,1.341-1.712,2.1
			c-0.497,0.745-0.925,1.546-1.27,2.374c-0.345,0.842-0.607,1.712-0.787,2.582c-0.18,0.897-0.276,1.808-0.276,2.706
			c0,3.631,1.477,7.193,4.046,9.76c0.634,0.634,1.35,1.214,2.096,1.71c0.745,0.497,1.56,0.926,2.388,1.271s1.697,0.606,2.582,0.786
			c0.884,0.179,1.795,0.276,2.691,0.276c0.911,0,1.81-0.097,2.706-0.276c0.885-0.179,1.755-0.44,2.582-0.786
			c0.83-0.345,1.63-0.774,2.376-1.271c0.759-0.496,1.463-1.075,2.098-1.71c2.582-2.568,4.045-6.13,4.045-9.76
			C364.177,12.916,364.094,12.005,363.916,11.107z"/>
	</g>
</g>
<g>
	<g>
		<path d="M363.914,495.502c-0.178-0.882-0.442-1.752-0.787-2.582c-0.345-0.841-0.773-1.641-1.27-2.387
			c-0.511-0.761-1.077-1.465-1.726-2.1c-0.635-0.635-1.339-1.215-2.098-1.712c-0.745-0.509-1.546-0.925-2.376-1.27
			c-0.841-0.345-1.697-0.62-2.582-0.785c-1.779-0.36-3.616-0.36-5.396,0c-0.885,0.166-1.755,0.44-2.582,0.785
			c-0.83,0.345-1.643,0.761-2.388,1.27c-0.745,0.497-1.463,1.077-2.098,1.712c-0.635,0.635-1.215,1.339-1.712,2.1
			c-0.497,0.745-0.925,1.546-1.27,2.387c-0.345,0.83-0.607,1.698-0.787,2.582c-0.179,0.884-0.276,1.795-0.276,2.692
			c0,0.896,0.097,1.808,0.276,2.692c0.18,0.884,0.442,1.753,0.787,2.595c0.345,0.828,0.773,1.629,1.27,2.374
			c0.497,0.759,1.077,1.463,1.712,2.1c0.635,0.635,1.352,1.215,2.098,1.71c0.745,0.497,1.56,0.925,2.388,1.27
			c0.828,0.345,1.697,0.621,2.582,0.801c0.884,0.18,1.795,0.262,2.691,0.262c0.911,0,1.81-0.084,2.706-0.262
			c0.871-0.179,1.741-0.456,2.582-0.801c0.83-0.345,1.63-0.773,2.376-1.27c0.759-0.496,1.463-1.075,2.098-1.71
			c0.635-0.636,1.215-1.341,1.726-2.1c0.497-0.745,0.925-1.546,1.27-2.374c0.345-0.842,0.607-1.712,0.787-2.595
			c0.18-0.885,0.261-1.796,0.261-2.692C364.175,497.297,364.092,496.385,363.914,495.502z"/>
	</g>
</g>
<g>
	<g>
		<path d="M175.156,495.502c-0.18-0.882-0.442-1.752-0.787-2.582c-0.345-0.841-0.773-1.641-1.27-2.387
			c-0.497-0.761-1.077-1.465-1.712-2.1c-0.635-0.635-1.353-1.215-2.098-1.712c-0.745-0.509-1.56-0.925-2.388-1.27
			c-0.828-0.345-1.698-0.62-2.582-0.785c-1.781-0.36-3.617-0.36-5.398,0c-0.884,0.166-1.739,0.44-2.582,0.785
			c-0.828,0.345-1.629,0.761-2.388,1.27c-0.745,0.497-1.463,1.077-2.098,1.712c-0.635,0.635-1.215,1.339-1.712,2.1
			c-0.497,0.745-0.925,1.546-1.27,2.387c-0.345,0.83-0.607,1.698-0.787,2.582c-0.179,0.884-0.262,1.795-0.262,2.692
			c0,0.896,0.083,1.808,0.262,2.692c0.18,0.884,0.442,1.753,0.787,2.595c0.345,0.828,0.773,1.629,1.27,2.374
			c0.511,0.759,1.077,1.463,1.726,2.1c0.635,0.635,1.339,1.215,2.098,1.71c0.745,0.497,1.546,0.925,2.375,1.27
			c0.842,0.345,1.698,0.621,2.582,0.801c0.897,0.18,1.795,0.262,2.706,0.262c0.897,0,1.808-0.084,2.692-0.262
			s1.753-0.456,2.582-0.801c0.828-0.345,1.643-0.773,2.388-1.27c0.745-0.496,1.463-1.075,2.098-1.71
			c0.635-0.636,1.215-1.341,1.712-2.1c0.497-0.745,0.925-1.546,1.27-2.374c0.345-0.842,0.607-1.712,0.787-2.595
			c0.179-0.885,0.276-1.796,0.276-2.692C175.432,497.297,175.335,496.385,175.156,495.502z"/>
	</g>
</g>
<g>
	<g>
		<path d="M364.184,287.679v-44.451h9.621c7.623,0,13.805-6.182,13.805-13.805V86.339c0-7.623-6.182-13.805-13.805-13.805h-9.621
			V55.225c0-7.623-6.182-13.805-13.805-13.805s-13.805,6.182-13.805,13.805v17.309H175.427V55.225
			c0-7.623-6.181-13.805-13.805-13.805c-7.625,0-13.805,6.182-13.805,13.805v17.309h-9.621c-7.625,0-13.805,6.182-13.805,13.805
			v143.084c0,7.623,6.181,13.805,13.805,13.805h9.621v44.453c-26.11,0.743-47.125,22.199-47.125,48.485
			c0,26.288,21.016,47.742,47.125,48.487v72.129c0,7.623,6.181,13.805,13.805,13.805c7.625,0,13.805-6.182,13.805-13.805v-72.093
			h161.147v72.093c0,7.623,6.182,13.805,13.805,13.805s13.805-6.182,13.805-13.805v-72.128c26.11-0.746,47.125-22.202,47.125-48.489
			C411.309,309.878,390.293,288.422,364.184,287.679z M152.001,100.144h207.999v115.474H152.001V100.144z M336.573,243.228v44.417
			H175.427v-44.417H336.573z M362.788,357.076H149.213c-11.53,0-20.911-9.381-20.911-20.911s9.381-20.909,20.911-20.909h213.576
			c11.53,0,20.909,9.381,20.909,20.909C383.699,347.696,374.318,357.076,362.788,357.076z"/>
	</g>
</g>
</svg>