<?xml version="1.0" encoding="iso-8859-1"?>
<!-- Uploaded to: SVG Repo, www.svgrepo.com, Generator: SVG Repo Mixer Tools -->
<svg fill="#000000" height="800px" width="800px" version="1.1" id="Capa_1" xmlns="http://www.w3.org/2000/svg" xmlns:xlink="http://www.w3.org/1999/xlink" 
	 viewBox="0 0 55 55" xml:space="preserve">
<g>
	<g>
		<path d="M49,14H12.499C10.57,14,9,15.57,9,17.5c0,0.98,0.407,1.864,1.058,2.5C9.407,20.636,9,21.52,9,22.5
			c0,1.93,1.57,3.5,3.499,3.5H49c3.309,0,6-2.691,6-6S52.309,14,49,14z M49,24H12.499C11.672,24,11,23.327,11,22.5
			s0.672-1.5,1.499-1.5H49c0.552,0,1-0.447,1-1s-0.448-1-1-1H12.499C11.672,19,11,18.327,11,17.5s0.672-1.5,1.499-1.5H49
			c2.206,0,4,1.794,4,4S51.206,24,49,24z"/>
		<path d="M46,32.5c0-1.93-1.57-3.5-3.499-3.5H6c-3.309,0-6,2.691-6,6s2.691,6,6,6h36.501C44.43,41,46,39.43,46,37.5
			c0-0.98-0.407-1.864-1.058-2.5C45.593,34.364,46,33.48,46,32.5z M6,36h36.501C43.328,36,44,36.673,44,37.5S43.328,39,42.501,39H6
			c-2.206,0-4-1.794-4-4s1.794-4,4-4h36.501C43.328,31,44,31.673,44,32.5c0,0.827-0.672,1.5-1.499,1.5H6c-0.552,0-1,0.447-1,1
			S5.448,36,6,36z"/>
	</g>
</g>
</svg>