<svg width="1524" height="5359" viewBox="0 0 1524 5359" fill="none" xmlns="http://www.w3.org/2000/svg">
<path fill-rule="evenodd" clip-rule="evenodd" d="M1209.99 0.169434L1310.77 223.419C1411.55 446.669 1613.11 893.169 1478.74 1339.67C1344.36 1786.17 874.054 2232.67 773.273 2679.17C672.492 3125.67 941.241 3572.17 974.834 4018.67C1008.43 4465.17 806.867 4911.67 706.086 5134.92L605.305 5358.17H0.622362V5134.92C0.622362 4911.67 0.622362 4465.17 0.622362 4018.67C0.622362 3572.17 0.622362 3125.67 0.622362 2679.17C0.622362 2232.67 0.622362 1786.17 0.622362 1339.67C0.622362 893.169 0.622362 446.669 0.622362 223.419V0.169434L1209.99 0.169434Z" fill="#F0F5F4"/>
</svg>
