<svg width="990" height="990" viewBox="0 0 990 990" fill="none" xmlns="http://www.w3.org/2000/svg">
<path d="M932.995 595.086H837.043C833.154 595.086 830 591.932 830 588.043C830 584.154 833.153 581 837.043 581H932.995C936.884 581 940.038 584.153 940.038 588.043C940.038 591.933 936.885 595.086 932.995 595.086Z" fill="currentcolor"/>
<path d="M438.985 566.802H35.0151C32.2459 566.802 30 563.648 30 559.759C30 555.87 32.2459 552.716 35.0151 552.716H438.985C441.754 552.716 444 555.869 444 559.759C444 563.649 441.755 566.802 438.985 566.802Z" fill="currentcolor"/>
<path d="M631.778 609.846C631.769 609.846 631.761 609.846 631.752 609.846C566.2 609.612 501.45 609.461 439.302 609.406C435.413 609.403 432.263 606.246 432.266 602.356C432.269 598.47 435.423 595.32 439.309 595.32C439.311 595.32 439.312 595.32 439.316 595.32C501.476 595.375 566.238 595.526 631.804 595.76C635.693 595.774 638.835 598.938 638.821 602.827C638.807 606.71 635.655 609.846 631.778 609.846Z" fill="currentcolor"/>
<path d="M71.454 610.187C67.582 610.187 64.432 607.061 64.411 603.182C64.39 599.293 67.525 596.122 71.416 596.101C167.164 595.575 264.908 595.31 370.233 595.293C374.122 595.293 377.278 598.447 377.278 602.336C377.278 606.225 374.126 609.379 370.237 609.379C264.936 609.396 167.218 609.661 71.492 610.187C71.48 610.187 71.466 610.187 71.454 610.187Z" fill="currentcolor"/>
<path d="M554.913 531.894C553.862 531.894 553.006 528.768 553 524.889C552.994 521 553.846 517.829 554.903 517.808C580.916 517.282 607.471 517.017 636.086 517C637.143 517 638 520.154 638 524.043C638 527.932 637.144 531.086 636.087 531.086C607.479 531.103 580.931 531.368 554.924 531.894C554.921 531.894 554.917 531.894 554.913 531.894Z" fill="currentcolor"/>
<path d="M716.827 531.894C714.723 531.894 713.011 528.768 713 524.889C712.989 521 714.692 517.829 716.806 517.808C768.832 517.282 821.942 517.017 879.172 517C881.285 517 883 520.154 883 524.043C883 527.932 881.287 531.086 879.174 531.086C821.958 531.103 768.861 531.368 716.848 531.894C716.841 531.894 716.833 531.894 716.827 531.894Z" fill="currentcolor"/>
<path d="M487.419 659.975C487.412 659.975 487.405 659.975 487.398 659.975C443.54 659.844 398.805 659.806 354.429 659.868C354.426 659.868 354.422 659.868 354.419 659.868C350.533 659.868 347.381 656.721 347.376 652.835C347.371 648.946 350.519 645.789 354.409 645.782C398.805 645.72 443.564 645.758 487.44 645.889C491.331 645.899 494.474 649.063 494.462 652.953C494.45 656.836 491.3 659.975 487.419 659.975Z" fill="currentcolor"/>
<path d="M210.919 660.426C207.05 660.426 203.902 657.304 203.878 653.428C203.854 649.539 206.987 646.364 210.876 646.34C235.382 646.185 259.887 646.061 284.391 645.969C284.401 645.969 284.41 645.969 284.419 645.969C288.296 645.969 291.446 649.105 291.462 652.984C291.478 656.873 288.336 660.041 284.447 660.054C259.953 660.147 235.458 660.271 210.966 660.425C210.95 660.426 210.934 660.426 210.919 660.426Z" fill="currentcolor"/>
<path d="M77.924 661.561C74.069 661.561 70.924 658.459 70.883 654.594C70.842 650.705 73.961 647.517 77.85 647.475C97.687 647.262 117.523 647.066 137.36 646.89C141.26 646.78 144.43 649.982 144.465 653.871C144.5 657.76 141.373 660.941 137.484 660.976C117.657 661.151 97.828 661.347 78.001 661.561C77.976 661.561 77.95 661.561 77.924 661.561Z" fill="currentcolor"/>
<path d="M509.378 567.674C504.244 567.674 500.055 564.572 500.001 560.707C499.946 556.818 504.1 553.63 509.279 553.588C535.699 553.375 562.117 553.179 588.537 553.003C593.731 552.893 597.953 556.095 598 559.984C598.046 563.873 593.882 567.054 588.702 567.089C562.296 567.264 535.887 567.46 509.481 567.674C509.447 567.674 509.413 567.674 509.378 567.674Z" fill="currentcolor"/>
<path d="M430.041 534.674C426.186 534.674 423.041 531.572 423 527.707C422.959 523.818 426.078 520.63 429.967 520.588C449.804 520.375 469.64 520.179 489.477 520.003C493.377 519.893 496.547 523.095 496.582 526.984C496.617 530.873 493.49 534.054 489.601 534.089C469.774 534.264 449.945 534.46 430.118 534.674C430.093 534.674 430.067 534.674 430.041 534.674Z" fill="currentcolor"/>
<path d="M409.127 724.011C401.271 724.011 393.415 724.008 385.557 724.004C381.668 724.001 378.516 720.847 378.518 716.958C378.52 713.069 381.673 709.919 385.561 709.919C385.563 709.919 385.564 709.919 385.564 709.919C406.521 709.929 427.472 709.922 448.422 709.909C448.424 709.909 448.425 709.909 448.427 709.909C452.315 709.909 455.466 713.059 455.47 716.945C455.473 720.834 452.323 723.991 448.432 723.995C435.332 724.004 422.229 724.011 409.127 724.011Z" fill="currentcolor"/>
<path d="M319.203 723.919C319.198 723.919 319.194 723.919 319.189 723.919C247.823 723.771 174.959 723.451 102.619 722.966C98.7299 722.939 95.5979 719.764 95.6239 715.875C95.6499 712.003 98.798 708.88 102.665 708.88C102.682 708.88 102.698 708.88 102.715 708.88C175.032 709.365 247.875 709.688 319.217 709.833C323.108 709.84 326.255 713 326.246 716.89C326.237 720.775 323.086 723.919 319.203 723.919Z" fill="currentcolor"/>
<path d="M423.524 784.44C371.031 784.44 318.534 784.43 266.041 784.413C262.15 784.413 258.998 781.256 259 777.367C259.002 773.481 262.155 770.327 266.043 770.327C266.045 770.327 266.045 770.327 266.045 770.327C318.538 770.344 371.031 770.355 423.525 770.355C427.414 770.355 430.568 773.508 430.568 777.398C430.568 781.288 427.414 784.44 423.524 784.44Z" fill="currentcolor"/>
<path d="M199.55 784.381C199.548 784.381 199.547 784.381 199.547 784.381L148.668 784.353C144.777 784.35 141.627 781.196 141.629 777.307C141.631 773.418 144.784 770.268 148.672 770.268C148.674 770.268 148.675 770.268 148.677 770.268L199.554 770.295C203.443 770.295 206.595 773.452 206.593 777.341C206.591 781.23 203.437 784.381 199.55 784.381Z" fill="currentcolor"/>
<path d="M858.133 678.525C856.458 678.525 854.78 677.93 853.435 676.726C836.044 661.141 808.265 657.396 787.375 667.843C785.429 668.809 783.152 668.837 781.192 667.898C779.234 666.966 777.815 665.178 777.347 663.059C775.227 653.447 767.091 644.915 756.112 640.792C746.617 637.233 734.899 636.665 721.276 639.117C717.469 639.798 713.788 637.257 713.1 633.429C712.41 629.601 714.957 625.939 718.786 625.251C734.932 622.345 749.157 623.143 761.059 627.603C773.51 632.276 783.42 641.293 788.416 652.095C813.369 643.058 842.96 648.415 862.837 666.236C865.733 668.832 865.977 673.286 863.38 676.181C861.988 677.734 860.066 678.525 858.133 678.525Z" fill="currentcolor"/>
<path d="M742.947 685.097C741.394 685.097 739.831 684.585 738.528 683.532C721.536 669.814 700.155 662.032 678.326 661.616C656.48 661.183 634.829 668.16 617.332 681.218C614.208 683.546 609.802 682.903 607.474 679.787C605.148 676.668 605.789 672.256 608.906 669.931C628.898 655.01 653.658 646.966 678.594 647.53C703.535 648.005 727.961 656.901 747.375 672.576C750.401 675.018 750.874 679.45 748.431 682.48C747.041 684.203 745.004 685.097 742.947 685.097Z" fill="currentcolor"/>
<path d="M955.872 663.595C954.319 663.595 952.756 663.083 951.453 662.03C934.461 648.312 913.08 640.53 891.251 640.114C869.405 639.681 847.754 646.658 830.257 659.716C827.133 662.044 822.727 661.401 820.399 658.285C818.073 655.166 818.714 650.754 821.831 648.429C841.823 633.508 866.583 625.464 891.519 626.028C916.46 626.503 940.886 635.399 960.3 651.074C963.326 653.516 963.799 657.948 961.356 660.978C959.966 662.701 957.929 663.595 955.872 663.595Z" fill="currentcolor"/>
<path d="M250.198 887.37C248.759 887.37 247.306 886.93 246.054 886.018C242.911 883.728 242.22 879.322 244.512 876.179C282.608 823.908 329.052 768.369 398.51 772.107C399.686 772.169 400.828 772.523 401.832 773.142C431.714 791.53 490.109 816.472 545.468 776.928C554.581 770.851 560.126 762.302 560.126 754.489C560.126 748.292 553.222 739.664 542.503 732.425C533.66 728.113 522.612 726.362 510.927 724.512C488.039 720.884 462.096 716.774 451.465 690.199C450.523 687.843 450.92 685.164 452.505 683.184C487.582 639.334 547.723 617.484 636.364 616.376C636.393 616.376 636.424 616.376 636.453 616.376C640.301 616.376 643.446 619.471 643.494 623.329C643.542 627.218 640.428 630.413 636.539 630.461C554.727 631.482 498.957 650.527 466.26 688.654C474.795 704.525 492.662 707.355 513.131 710.598C525.523 712.562 538.336 714.591 549.19 720.017C549.451 720.148 549.704 720.296 549.947 720.457C557.243 725.32 574.212 738.374 574.212 754.488C574.212 767.14 566.457 779.86 553.468 788.519C508.807 820.422 451.439 819.559 396.019 786.095C334.433 783.767 291.478 835.65 255.894 884.472C254.516 886.366 252.371 887.37 250.198 887.37Z" fill="currentcolor"/>
<path d="M429.917 791.995C429.666 791.995 429.411 791.981 429.155 791.954C425.288 791.538 422.49 788.068 422.905 784.199C426.285 752.747 437.763 722.491 456.094 696.71C458.35 693.539 462.741 692.8 465.916 695.052C469.085 697.305 469.828 701.703 467.574 704.874C450.637 728.692 440.035 756.643 436.913 785.706C436.523 789.316 433.469 791.995 429.917 791.995Z" fill="currentcolor"/>
<path d="M655.693 789.309C654.543 789.309 653.377 789.027 652.297 788.432C648.892 786.554 647.654 782.269 649.534 778.865C660.222 759.487 681.426 746.828 703.554 746.608C703.747 746.608 703.943 746.605 704.137 746.605C726.058 746.605 747.226 758.799 758.198 777.796C760.143 781.163 758.991 785.472 755.622 787.415C752.255 789.368 747.946 788.206 746 784.839C737.633 770.354 720.846 760.691 704.119 760.691C703.976 760.691 703.835 760.691 703.691 760.694C686.823 760.859 670.016 770.897 661.865 785.667C660.584 787.996 658.176 789.309 655.693 789.309Z" fill="currentcolor"/>
<path d="M412.037 560.311C410.887 560.311 409.721 560.029 408.641 559.434C405.236 557.556 403.998 553.271 405.878 549.867C416.566 530.489 420.402 508.918 432.5 493C442 480.5 446.184 479 468.684 479C483.184 483 503.57 529.801 514.542 548.798C516.487 552.165 515.335 556.474 511.966 558.417C508.599 560.37 504.29 559.208 502.344 555.841C493.977 541.356 479.194 494.5 461.5 493C448.358 491 439.5 507 435.5 518C430 528.5 422.042 541 418.209 556.669C416.928 558.998 414.52 560.311 412.037 560.311Z" fill="currentcolor"/>
<path d="M684.434 856.891C684.204 856.891 683.971 856.881 683.738 856.857C681.403 856.623 679.338 855.244 678.229 853.177C673.903 845.113 664.848 839.507 655.699 839.229C646.543 838.926 637.172 843.995 632.366 851.788C631.071 853.882 628.619 855.203 626.307 855.131C623.841 855.107 621.568 853.797 620.313 851.675C614.405 841.688 603.091 835.189 591.49 835.113C591.426 835.113 591.361 835.113 591.297 835.113C579.761 835.113 568.459 841.454 562.46 851.31C560.438 854.628 556.103 855.688 552.781 853.662C549.459 851.64 548.405 847.307 550.427 843.985C558.978 829.94 575.301 820.931 591.577 821.027C604.764 821.113 617.685 827.049 626.606 836.695C634.419 829.181 645.195 824.875 656.127 825.151C667.328 825.491 678.1 830.756 685.464 839.096C692.672 833.477 701.689 830.2 710.86 830.055C723.039 829.962 735.127 835.213 743.179 844.361C745.75 847.281 745.466 851.731 742.546 854.299C739.628 856.878 735.178 856.586 732.608 853.666C727.245 847.572 719.346 843.931 711.08 844.14C702.964 844.267 695.032 848.078 689.864 854.333C688.518 855.962 686.523 856.891 684.434 856.891Z" fill="currentcolor"/>
<path d="M548.409 554.69C545.555 554.69 555.842 556.442 554.782 553.612C549.821 540.362 549.282 533.341 543.282 520.841C538.183 511.854 540.936 511.276 533 495.764C522 474.264 510.793 419.5 495.501 423C488.152 424.682 463.023 468.571 455 464.19C448.316 460.534 434.465 455.082 432 450.236L414.432 418.038C411.834 412.928 409.995 406.202 406 403C403.223 400.772 400.6 396.235 398 398C395.5 398 393.558 399.181 389 400.5C383.058 402.219 380 400.5 371.5 398C366.5 395 371.5 397.572 360 391.072C341 374.572 328.246 375.496 321.653 351.183C319.094 341.75 316.45 331.994 313.228 322.908C310.355 314.803 306.042 304.964 298.136 300.81C288.847 295.93 276.381 300.421 268.861 307.378C259.832 315.738 254.545 327.778 249.435 339.422C248.591 341.344 246.937 342.789 244.92 343.363C242.905 343.941 240.735 343.59 239.005 342.404C235.052 339.698 229.961 340.654 227.173 342.937C223.54 345.915 221.239 350.877 218.804 356.132L178.5 411.993C149 450.236 136.734 440.619 95 489.5C68.7342 573.742 62.5 559 53.5 554.242C51.72 550.782 91.542 467.777 95 466C130.5 429.047 182.722 400.23 205.494 351.349L206.025 350.207C208.879 344.048 212.117 337.063 218.245 332.043C224.117 327.232 232.126 325.64 239.356 327.407C244.174 316.791 249.993 305.652 259.291 297.041C270.094 287.041 288.91 280.049 304.686 288.341C316.92 294.768 322.771 307.675 326.504 318.204C329.903 327.792 332.62 337.809 335.246 347.497C341.682 371.229 339 360.5 355 375.5C362.5 380.5 361.932 381 366.5 383.5C374 389 373 388.5 376.5 390C382 392.357 381.5 393.455 387.442 391.072C394.956 385.972 405.857 386.959 413.961 393.455C420.32 398.558 424.015 405.818 426.984 411.65L441 441.236C443.115 445.394 452.354 448.788 455 450.236C458.325 452.062 483.499 415.402 483.499 415.402C483.499 415.402 492.781 405.5 508.5 411.65C524.224 409.693 537.282 483.341 548.409 498.19C554.782 514.341 565.88 536.44 570.999 550.113C572.363 553.755 554.516 552.877 550.872 554.242C550.063 554.545 549.229 554.69 548.409 554.69Z" fill="currentcolor"/>
<path d="M279.303 513.189C275.996 513.189 273.048 510.85 272.396 507.48C269.112 490.471 260.009 475.364 250.373 459.37C248.487 456.241 246.606 453.115 244.773 449.982C234.128 431.783 222.386 407.687 226.084 382.655C226.655 378.807 230.249 376.159 234.081 376.716C237.929 377.283 240.587 380.863 240.018 384.711C236.961 405.403 247.45 426.662 256.931 442.87C258.733 445.951 260.583 449.022 262.438 452.1C272.285 468.445 282.468 485.344 286.227 504.812C286.965 508.629 284.466 512.323 280.647 513.062C280.196 513.148 279.747 513.189 279.303 513.189Z" fill="currentcolor"/>
<path d="M367.164 516.735C363.675 516.735 360.647 514.146 360.188 510.597C358.004 493.698 350.917 477.085 340.234 463.811C337.796 460.781 338.274 456.349 341.305 453.91C344.335 451.465 348.766 451.95 351.207 454.98C363.673 470.465 371.608 489.073 374.157 508.789C374.656 512.647 371.934 516.179 368.075 516.678C367.769 516.717 367.465 516.735 367.164 516.735Z" fill="currentcolor"/>
<path d="M737.655 452.812C733.425 452.812 729.235 452.382 725.141 451.502C721.338 450.687 718.917 446.942 719.733 443.139C720.55 439.336 724.288 436.915 728.098 437.733C743.324 441 761.254 435.852 774.896 424.297C786.939 414.101 796.487 398.767 802.516 379.945C807.994 362.836 810.281 344.421 812.324 325.48C815.601 295.097 818.17 265.399 813.689 236.092C812.843 230.566 811.684 224.843 808.95 220.414C806.502 216.456 802.684 213.863 799.218 213.811C796.164 213.938 792.698 215.678 790.153 218.797C787.11 222.532 785.399 227.604 784.25 231.603C778.964 249.977 778.825 270.064 778.689 289.487L778.667 292.709C778.495 315.227 777.721 337.143 770.25 357.708C761.388 382.09 743.654 400.065 722.81 405.791C719.056 406.823 715.186 404.615 714.153 400.866C713.123 397.114 715.329 393.238 719.079 392.207C735.526 387.688 749.706 372.994 757.01 352.897C763.718 334.44 764.419 313.841 764.581 292.599L764.605 289.391C764.746 269.016 764.892 247.945 770.712 227.711C772.232 222.422 774.576 215.613 779.237 209.894C784.449 203.508 791.861 199.725 799.124 199.725C799.224 199.725 799.323 199.725 799.427 199.725C807.708 199.849 815.948 204.942 820.93 213.013C824.991 219.585 826.539 226.965 827.608 233.959C832.35 264.944 829.706 295.646 826.325 326.992C824.203 346.68 821.81 365.872 815.926 384.243C809.096 405.575 798.054 423.144 783.997 435.046C770.405 446.557 753.771 452.812 737.655 452.812Z" fill="currentcolor"/>
<path d="M620.427 456.213C586.289 456.213 552.698 436.109 537.472 405.3C526.715 383.535 525.274 358.486 525.284 336.855C525.296 310.712 527.249 284.35 531.091 258.493C534.741 233.919 545.798 227.333 554.429 226.133C563.138 224.943 572.313 229.513 577.805 237.825C582.439 244.83 583.835 253.138 584.533 259.597C585.845 271.705 585.503 283.858 585.171 295.609C585.018 301.042 584.86 306.662 584.874 312.13C584.926 332.822 587.763 347.32 594.073 359.147C601.771 373.573 615.415 382.896 628.833 382.896C632.722 382.896 635.876 386.05 635.876 389.939C635.876 393.828 632.723 396.982 628.833 396.982C610.282 396.982 591.76 384.733 581.644 365.777C572.096 347.881 570.827 327.725 570.787 312.164C570.771 306.483 570.933 300.754 571.09 295.214C571.424 283.415 571.738 272.27 570.529 261.114C569.968 255.935 568.999 250.048 566.055 245.594C563.612 241.897 559.628 239.607 556.364 240.088C548.716 241.147 545.886 254.758 545.024 260.563C541.282 285.739 539.381 311.407 539.369 336.862C539.359 357.87 540.652 379.948 550.098 399.062C564.492 428.186 598.294 446.017 630.44 441.422C634.285 440.913 637.856 443.551 638.404 447.402C638.952 451.254 636.275 454.82 632.424 455.37C628.438 455.938 624.429 456.213 620.427 456.213Z" fill="currentcolor"/>
<path d="M677.286 650.436C673.397 650.436 670.243 647.282 670.243 643.393V265.749C670.243 261.86 673.396 258.706 677.286 258.706C681.176 258.706 684.329 261.86 684.329 265.749V643.393C684.329 647.282 681.176 650.436 677.286 650.436Z" fill="currentcolor"/>
<path d="M682.149 227.454C678.26 227.454 675.106 224.301 675.106 220.411V133.716C675.106 129.827 678.259 126.673 682.149 126.673C686.039 126.673 689.192 129.826 689.192 133.716V220.411C689.192 224.3 686.038 227.454 682.149 227.454Z" fill="currentcolor"/>
<path d="M689.988 654.153C683.208 654.153 677.457 653.094 675.135 652.599C659.381 652.592 631.306 652.094 631.306 621.766V145.955C631.306 120.669 651.878 100.097 677.164 100.097C689.413 100.097 700.93 104.867 709.591 113.529C718.254 122.192 723.023 133.705 723.023 145.954V621.321C724.636 634.65 719.716 642.223 715.272 646.239C708.307 652.537 698.363 654.153 689.988 654.153ZM677.518 638.699C682.702 639.903 699.03 641.956 705.839 635.779C706.917 634.802 710.199 631.828 708.998 622.684C708.958 622.378 708.938 622.072 708.938 621.766V145.955C708.938 137.468 705.633 129.49 699.632 123.489C693.631 117.488 685.651 114.183 677.164 114.183C659.644 114.183 645.392 128.437 645.392 145.955V621.766C645.392 634.913 651.952 638.513 675.912 638.513C676.452 638.513 676.992 638.575 677.518 638.699Z" fill="currentcolor"/>
<path d="M844.683 419.826C830.432 420.937 810.74 425.61 809.016 428.254C808.21 429.442 808.71 432.545 810.663 438.558C815.221 452.848 824.837 465.95 837.863 475.757C848.206 483.534 863.646 490.506 875.52 492.767C877.934 493.227 880.156 493.686 880.462 493.763C880.922 493.916 880.959 495.527 880.767 503.609C880.464 516.711 879.469 525.56 877.208 535.712L871.147 559.228L870.612 560.228C865.612 560.228 869.113 560.228 865.113 560.228C858.113 560.228 856.613 560.228 850.613 560.228C837.113 560.228 845.016 560.228 836.112 560.228C833.613 560.228 832.613 560.228 829.113 560.228C826.613 560.228 827.221 560.228 825.613 560.228C824.502 560.228 822.726 560.058 822.113 560.824C821.002 562.241 821.321 570.228 823.516 570.228C830.821 570.228 835.316 570.228 843.016 570.228C848.532 570.228 854.619 570.228 860.516 570.228C864.576 570.228 868.516 570.228 871.516 570.228C875.515 570.228 879.016 570.328 882.016 570.228C884.515 570.228 883.954 570.228 887.516 570.228C891.04 570.228 891.016 570.228 893.016 570.228C895.696 570.228 894.113 570.228 896.113 570.228C897.613 570.228 898.655 570.228 901.016 570.228C905.015 570.228 906.867 570.328 913.016 570.228C917.094 570.161 917.016 570.228 921.016 570.228C928.015 570.228 932.516 570.228 938.016 570.228C941.981 570.127 944.38 570.328 948.516 570.228C953.981 570.328 955.652 570.495 961.016 570.228C966.878 569.959 966.016 570.228 970.516 570.228C974.515 570.228 974.516 570.228 976.016 570.228C978.015 570.228 979.016 570.228 981.516 570.228C985.515 570.228 982.015 561.324 979.016 560.324C969.016 560.324 960.884 560.324 952.016 560.324C946.884 560.324 947.113 560.324 945.113 560.324C942.113 560.324 939.34 555.712 937.502 551.765C931.186 538.28 927.239 517.9 927.239 498.858V493.609L930.036 493.148C936.588 492.037 946.931 488.474 954.401 484.757C972.176 475.792 973.799 478.898 981.5 463C983.914 458.02 976.311 454.098 977 450C977.728 445.862 983.71 425.719 973.711 423C961.912 419.744 967.349 419.861 955.779 419.824C935.436 419.786 922.946 424.382 907.547 437.678C905.44 439.516 903.601 441.011 903.487 441.011C903.372 441.011 901.534 439.516 899.426 437.678C887.588 427.448 877.589 422.621 864.219 420.552C860.466 419.979 848.514 419.519 844.683 419.826ZM862.647 428.254C876.898 430.131 886.094 434.916 899.426 447.367C902.759 450.508 905.097 450.508 908.43 447.367C916.054 440.279 923.829 434.304 930.036 431.738C941.988 426.757 956.357 426.815 973.711 429.728C978.155 430.456 971.642 438.156 973.711 439C975.5 442.5 982.723 437.367 981 442.5C977.82 451.924 980.991 454.181 973.711 461.728C966.701 469.044 960.954 473.134 950.647 478.228C934.787 486.082 920.881 487.899 908.43 484.757C906.055 484.183 902.989 484.183 900.614 484.757C883.222 489.124 860.728 483.515 842.147 468.728C837.781 465.242 831.403 459.247 828.147 454.728C824.009 448.943 818.567 438.789 818.147 434.728C818.033 434 818 434.238 821.5 431.738C826.403 430.013 833.173 428.981 840.147 428.254C845.586 427.716 857.895 427.64 862.647 428.254ZM908.43 493.725C910.193 494.031 913.755 494.3 916.321 494.3H919L919.5 503C920.075 518.86 922.514 530.471 926 542.5C927.533 547.71 929.123 553.553 931 557C932.533 559.797 928.5 560.228 926.613 560.324C921.251 560.599 921.113 560.228 912.113 560.228C909.613 560.228 909.527 560.228 904.113 560.228C900.744 560.228 902.113 560.228 896.113 560.228C889.613 559.728 889.151 560.228 882.5 560.228C880.239 559.845 884.847 540.42 885 540C885.461 538.814 886.979 530.138 887.516 526C888.396 519.142 889.233 512.612 889.5 503.609V494.3L892.723 494.183C895.787 494.031 899.35 493.686 900.614 493.378C901.878 493.072 903.45 492.881 904.061 492.995C904.714 493.111 906.669 493.419 908.43 493.725Z" fill="currentcolor"/>
<path d="M926.328 531C925.598 531 925.004 527.852 925 523.945C924.996 520.028 925.587 516.835 926.321 516.814C944.377 516.284 962.809 516.017 982.671 516C983.405 516 984 519.176 984 523.093C984 527.01 983.406 530.186 982.672 530.186C962.815 530.203 944.387 530.47 926.335 531C926.333 531 926.33 531 926.328 531Z" fill="currentcolor"/>
<path d="M447 265C473.066 265 494 285.702 494 311C494 336.298 473.066 357 447 357C420.934 357 400 336.298 400 311C400 285.702 420.934 265 447 265Z" stroke="currentcolor" stroke-width="12"/>
<circle cx="495" cy="495" r="489" stroke="currentcolor" stroke-width="12"/>
</svg>
