<?xml version="1.0" encoding="iso-8859-1"?>
<!-- Uploaded to: SVG Repo, www.svgrepo.com, Generator: SVG Repo Mixer Tools -->
<svg fill="#000000" height="800px" width="800px" version="1.1" id="Layer_1" xmlns="http://www.w3.org/2000/svg" xmlns:xlink="http://www.w3.org/1999/xlink" 
	 viewBox="0 0 511.998 511.998" xml:space="preserve">
<g>
	<g>
		<path d="M369.312,185.525l-56.841-85.163c-6.383-9.566-18.372-13.705-29.295-10.112c-18.961,6.238-186.394,61.73-226.27,88.337
			c-58.709,39.177-74.59,118.818-35.413,177.519c32.41,48.563,92.399,67.243,145.434,50.27l108.979,98.97
			c5.026,4.565,11.665,6.946,18.441,6.622c4.676-0.222,9.156-1.724,12.979-4.275c1.724-1.152,3.319-2.517,4.736-4.079l34.423-37.905
			c9.506-10.462,8.721-26.658-1.741-36.164l-93.099-84.548c49.894-50.108,107.349-118.468,116.019-128.845
			C374.944,207.438,375.61,194.971,369.312,185.525z M327.533,448.496l-34.424,37.905l-100.642-91.401
			c2.15-1.263,4.446-2.074,6.545-3.473c9.532-6.366,21.376-16.469,34.278-28.612L327.533,448.496z M184.805,370.229
			c-47.036,31.394-110.626,18.714-142.02-28.331c-31.394-47.036-18.714-110.626,28.331-142.02
			c38.127-25.446,220.058-85.316,220.058-85.316l56.849,85.171C348.022,199.741,231.84,338.835,184.805,370.229z"/>
	</g>
</g>
<g>
	<g>
		<path d="M181.195,249.533c-19.593-29.355-59.409-37.299-88.764-17.707c-29.355,19.593-37.299,59.409-17.707,88.764
			s59.409,37.299,88.764,17.707C192.843,318.704,200.787,278.888,181.195,249.533z M149.28,316.998
			c-17.638,11.776-41.481,7.014-53.257-10.624c-11.776-17.638-7.014-41.481,10.624-53.257c17.638-11.776,41.481-7.014,53.257,10.624
			C171.672,281.38,166.919,305.222,149.28,316.998z"/>
	</g>
</g>
<g>
	<g>
		<path d="M433.619,0.001c-2.594,5.734-6.332,11.392-11.895,15.104c-7.424,4.958-16.316,4.958-26.624,4.966
			c-12.638,0-26.948,0.017-40.823,9.267c-18.927,12.629-25.37,35.14-27.563,47.462h26.129c2.022-8.414,6.34-19.959,15.642-26.163
			c7.424-4.958,16.324-4.958,26.624-4.966c12.638,0,26.948-0.017,40.823-9.267c14.097-9.412,21.197-24.277,24.866-36.403H433.619z"
			/>
	</g>
</g>
<g>
	<g>
		<path d="M459.219,51.201c-2.594,5.734-6.332,11.392-11.895,15.104c-7.424,4.958-16.316,4.958-26.624,4.966
			c-12.638,0-26.948,0.017-40.823,9.267c-18.927,12.629-25.37,35.14-27.563,47.462h26.129c2.022-8.414,6.349-19.959,15.65-26.163
			c7.424-4.958,16.324-4.958,26.624-4.966c12.638,0,26.948-0.017,40.823-9.267c14.089-9.412,21.188-24.277,24.858-36.403H459.219z"
			/>
	</g>
</g>
<g>
	<g>
		<path d="M484.819,102.401c-2.594,5.734-6.332,11.392-11.896,15.104c-7.424,4.958-16.316,4.958-26.624,4.966
			c-12.638,0-26.948,0.017-40.823,9.267c-18.927,12.629-25.37,35.14-27.563,47.462h26.129c2.022-8.414,6.349-19.959,15.65-26.163
			c7.424-4.958,16.324-4.958,26.624-4.966c12.638,0,26.948-0.017,40.823-9.267c14.089-9.412,21.188-24.277,24.858-36.403H484.819z"
			/>
	</g>
</g>
</svg>