<svg width="1057" height="788" viewBox="0 0 1057 788" fill="none" xmlns="http://www.w3.org/2000/svg">
<path d="M894.474 715.65C894.23 715.65 893.979 715.636 893.731 715.612C889.862 715.203 887.056 711.736 887.462 707.871C890.447 679.538 893.532 650.238 892.837 621.376C892.414 605 890.822 590.161 887.967 576.02C886.244 567.657 883.723 562.883 880.264 561.46C877.571 560.329 873.606 561.25 870.587 563.685C866.732 566.753 864.098 571.722 862.23 575.711C856.05 588.899 852.015 604.446 850.237 621.92C849.893 625.111 849.651 628.261 849.458 631.405C848.382 650.99 849.843 671.135 851.255 690.62C851.537 694.499 848.619 697.873 844.74 698.155C840.833 698.361 837.487 695.517 837.207 691.638C835.761 671.716 834.268 651.114 835.396 630.59C835.606 627.182 835.865 623.819 836.228 620.456C838.162 601.439 842.621 584.361 849.473 569.739C851.992 564.361 855.668 557.558 861.781 552.692C868.826 547.011 878.21 545.333 885.662 548.452C896.446 552.892 900.019 564.708 901.766 573.212C904.789 588.182 906.47 603.815 906.914 621.027C907.633 650.811 904.5 680.568 901.47 709.345C901.091 712.961 898.034 715.65 894.474 715.65Z" fill="currentcolor"/>
<path d="M902.995 494.989H807.043C803.154 494.989 800 491.835 800 487.946C800 484.057 803.153 480.903 807.043 480.903H902.995C906.884 480.903 910.038 484.056 910.038 487.946C910.038 491.836 906.885 494.989 902.995 494.989Z" fill="currentcolor"/>
<path d="M408.985 466.705H5.01513C2.24586 466.705 0 463.551 0 459.662C0 455.773 2.24586 452.619 5.01513 452.619H408.985C411.754 452.619 414 455.772 414 459.662C414 463.552 411.755 466.705 408.985 466.705Z" fill="currentcolor"/>
<path d="M601.778 509.749C601.769 509.749 601.761 509.749 601.752 509.749C536.2 509.515 471.45 509.364 409.302 509.309C405.413 509.306 402.263 506.149 402.266 502.259C402.269 498.373 405.423 495.223 409.309 495.223C409.311 495.223 409.312 495.223 409.316 495.223C471.476 495.278 536.238 495.429 601.804 495.663C605.693 495.677 608.835 498.841 608.821 502.73C608.807 506.613 605.655 509.749 601.778 509.749Z" fill="currentcolor"/>
<path d="M41.454 510.09C37.582 510.09 34.432 506.964 34.411 503.085C34.39 499.196 37.525 496.025 41.416 496.004C137.164 495.478 234.908 495.213 340.233 495.196C344.122 495.196 347.278 498.35 347.278 502.239C347.278 506.128 344.126 509.282 340.237 509.282C234.936 509.299 137.218 509.564 41.492 510.09C41.48 510.09 41.466 510.09 41.454 510.09Z" fill="currentcolor"/>
<path d="M524.913 431.797C523.862 431.797 523.006 428.671 523 424.792C522.994 420.903 523.846 417.732 524.903 417.711C550.916 417.185 577.471 416.92 606.086 416.903C607.143 416.903 608 420.057 608 423.946C608 427.835 607.144 430.989 606.087 430.989C577.479 431.006 550.931 431.271 524.924 431.797C524.921 431.797 524.917 431.797 524.913 431.797Z" fill="currentcolor"/>
<path d="M688.628 431.797C685.534 431.797 683.017 428.671 683 424.792C682.983 420.903 685.488 417.732 688.598 417.711C765.106 417.185 843.209 416.92 927.371 416.903C930.478 416.903 933 420.057 933 423.946C933 427.835 930.481 430.989 927.374 430.989C843.232 431.006 765.149 431.271 688.658 431.797C688.649 431.797 688.637 431.797 688.628 431.797Z" fill="currentcolor"/>
<path d="M457.419 559.878C457.412 559.878 457.405 559.878 457.398 559.878C413.54 559.747 368.805 559.709 324.429 559.771C324.426 559.771 324.422 559.771 324.419 559.771C320.533 559.771 317.381 556.624 317.376 552.738C317.371 548.849 320.519 545.692 324.409 545.685C368.805 545.623 413.564 545.661 457.44 545.792C461.331 545.802 464.474 548.966 464.462 552.856C464.45 556.739 461.3 559.878 457.419 559.878Z" fill="currentcolor"/>
<path d="M180.919 560.329C177.05 560.329 173.902 557.207 173.878 553.331C173.854 549.442 176.987 546.267 180.876 546.243C205.382 546.088 229.887 545.964 254.391 545.872C254.401 545.872 254.41 545.872 254.419 545.872C258.296 545.872 261.446 549.008 261.462 552.887C261.478 556.776 258.336 559.944 254.447 559.957C229.953 560.05 205.458 560.174 180.966 560.328C180.95 560.329 180.934 560.329 180.919 560.329Z" fill="currentcolor"/>
<path d="M47.924 561.464C44.069 561.464 40.924 558.362 40.883 554.497C40.842 550.608 43.961 547.42 47.85 547.378C67.687 547.165 87.523 546.969 107.36 546.793C111.26 546.683 114.43 549.885 114.465 553.774C114.5 557.663 111.373 560.844 107.484 560.879C87.657 561.054 67.828 561.25 48.001 561.464C47.976 561.464 47.95 561.464 47.924 561.464Z" fill="currentcolor"/>
<path d="M479.378 467.577C474.244 467.577 470.055 464.475 470.001 460.61C469.946 456.721 474.1 453.533 479.279 453.491C505.699 453.278 532.117 453.082 558.537 452.906C563.731 452.796 567.953 455.998 568 459.887C568.046 463.776 563.882 466.957 558.702 466.992C532.296 467.167 505.887 467.363 479.481 467.577C479.447 467.577 479.413 467.577 479.378 467.577Z" fill="currentcolor"/>
<path d="M400.041 434.577C396.186 434.577 393.041 431.475 393 427.61C392.959 423.721 396.078 420.533 399.967 420.491C419.804 420.278 439.64 420.082 459.477 419.906C463.377 419.796 466.547 422.998 466.582 426.887C466.617 430.776 463.49 433.957 459.601 433.992C439.774 434.167 419.945 434.363 400.118 434.577C400.093 434.577 400.067 434.577 400.041 434.577Z" fill="currentcolor"/>
<path d="M379.127 623.914C371.271 623.914 363.415 623.911 355.557 623.907C351.668 623.904 348.516 620.75 348.518 616.861C348.52 612.972 351.673 609.822 355.561 609.822C355.563 609.822 355.564 609.822 355.564 609.822C376.521 609.832 397.472 609.825 418.422 609.812C418.424 609.812 418.425 609.812 418.427 609.812C422.315 609.812 425.466 612.962 425.47 616.848C425.473 620.737 422.323 623.894 418.432 623.898C405.332 623.907 392.229 623.914 379.127 623.914Z" fill="currentcolor"/>
<path d="M287.901 623.822C287.895 623.822 287.891 623.822 287.885 623.822C203.329 623.674 116.998 623.354 31.288 622.869C26.6802 622.842 22.9694 619.667 23.0002 615.778C23.031 611.906 26.7608 608.783 31.3425 608.783C31.3627 608.783 31.3816 608.783 31.4018 608.783C117.084 609.268 203.39 609.591 287.918 609.736C292.528 609.743 296.257 612.903 296.246 616.793C296.235 620.678 292.502 623.822 287.901 623.822Z" fill="currentcolor"/>
<path d="M393.524 684.343C341.031 684.343 288.534 684.333 236.041 684.316C232.15 684.316 228.998 681.159 229 677.27C229.002 673.384 232.155 670.23 236.043 670.23C236.045 670.23 236.045 670.23 236.045 670.23C288.538 670.247 341.031 670.258 393.525 670.258C397.414 670.258 400.568 673.411 400.568 677.301C400.568 681.191 397.414 684.343 393.524 684.343Z" fill="currentcolor"/>
<path d="M165.037 684.284C165.034 684.284 165.032 684.284 165.032 684.284L81.5496 684.256C75.1652 684.253 69.9967 681.099 70 677.21C70.0033 673.321 75.1767 670.171 81.5561 670.171C81.5594 670.171 81.561 670.171 81.5643 670.171L165.043 670.198C171.424 670.198 176.596 673.355 176.593 677.244C176.59 681.133 171.415 684.284 165.037 684.284Z" fill="currentcolor"/>
<path d="M828.133 578.428C826.458 578.428 824.78 577.833 823.435 576.629C806.044 561.044 778.265 557.299 757.375 567.746C755.429 568.712 753.152 568.74 751.192 567.801C749.234 566.869 747.815 565.081 747.347 562.962C745.227 553.35 737.091 544.818 726.112 540.695C716.617 537.136 704.899 536.568 691.276 539.02C687.469 539.701 683.788 537.16 683.1 533.332C682.41 529.504 684.957 525.842 688.786 525.154C704.932 522.248 719.157 523.046 731.059 527.506C743.51 532.179 753.42 541.196 758.416 551.998C783.369 542.961 812.96 548.318 832.837 566.139C835.733 568.735 835.977 573.189 833.38 576.084C831.988 577.637 830.066 578.428 828.133 578.428Z" fill="currentcolor"/>
<path d="M712.947 585C711.394 585 709.831 584.488 708.528 583.435C691.536 569.717 670.155 561.935 648.326 561.519C626.48 561.086 604.829 568.063 587.332 581.121C584.208 583.449 579.802 582.806 577.474 579.69C575.148 576.571 575.789 572.159 578.906 569.834C598.898 554.913 623.658 546.869 648.594 547.433C673.535 547.908 697.961 556.804 717.375 572.479C720.401 574.921 720.874 579.353 718.431 582.383C717.041 584.106 715.004 585 712.947 585Z" fill="currentcolor"/>
<path d="M925.872 563.498C924.319 563.498 922.756 562.986 921.453 561.933C904.461 548.215 883.08 540.433 861.251 540.017C839.405 539.584 817.754 546.561 800.257 559.619C797.133 561.947 792.727 561.304 790.399 558.188C788.073 555.069 788.714 550.657 791.831 548.332C811.823 533.411 836.583 525.367 861.519 525.931C886.46 526.406 910.886 535.302 930.3 550.977C933.326 553.419 933.799 557.851 931.356 560.881C929.966 562.604 927.929 563.498 925.872 563.498Z" fill="currentcolor"/>
<path d="M1049.87 582.498C1048.32 582.498 1046.76 581.986 1045.45 580.933C1028.46 567.215 1007.08 559.433 985.251 559.017C963.405 558.584 941.754 565.561 924.257 578.619C921.133 580.947 916.727 580.304 914.399 577.188C912.073 574.069 912.714 569.657 915.831 567.332C935.823 552.411 960.583 544.367 985.519 544.931C1010.46 545.406 1034.89 554.302 1054.3 569.977C1057.33 572.419 1057.8 576.851 1055.36 579.881C1053.97 581.604 1051.93 582.498 1049.87 582.498Z" fill="currentcolor"/>
<path d="M220.198 787.273C218.759 787.273 217.306 786.833 216.054 785.921C212.911 783.631 212.22 779.225 214.512 776.082C252.608 723.811 299.052 668.272 368.51 672.01C369.686 672.072 370.828 672.426 371.832 673.045C401.714 691.433 460.109 716.375 515.468 676.831C524.581 670.754 530.126 662.205 530.126 654.392C530.126 648.195 523.222 639.567 512.503 632.328C503.66 628.016 492.612 626.265 480.927 624.415C458.039 620.787 432.096 616.677 421.465 590.102C420.523 587.746 420.92 585.067 422.505 583.087C457.582 539.237 517.723 517.387 606.364 516.279C606.393 516.279 606.424 516.279 606.453 516.279C610.301 516.279 613.446 519.374 613.494 523.232C613.542 527.121 610.428 530.316 606.539 530.364C524.727 531.385 468.957 550.43 436.26 588.557C444.795 604.428 462.662 607.258 483.131 610.501C495.523 612.465 508.336 614.494 519.19 619.92C519.451 620.051 519.704 620.199 519.947 620.36C527.243 625.223 544.212 638.277 544.212 654.391C544.212 667.043 536.457 679.763 523.468 688.422C478.807 720.325 421.439 719.462 366.019 685.998C304.433 683.67 261.478 735.553 225.894 784.375C224.516 786.269 222.371 787.273 220.198 787.273Z" fill="currentcolor"/>
<path d="M399.917 691.898C399.666 691.898 399.411 691.884 399.155 691.857C395.288 691.441 392.49 687.971 392.905 684.102C396.285 652.65 407.763 622.394 426.094 596.613C428.35 593.442 432.741 592.703 435.916 594.955C439.085 597.208 439.828 601.606 437.574 604.777C420.637 628.595 410.035 656.546 406.913 685.609C406.523 689.219 403.469 691.898 399.917 691.898Z" fill="currentcolor"/>
<path d="M625.693 689.212C624.543 689.212 623.377 688.93 622.297 688.335C618.892 686.457 617.654 682.172 619.534 678.768C630.222 659.39 651.426 646.731 673.554 646.511C673.747 646.511 673.943 646.508 674.137 646.508C696.058 646.508 717.226 658.702 728.198 677.699C730.143 681.066 728.991 685.375 725.622 687.318C722.255 689.271 717.946 688.109 716 684.742C707.633 670.257 690.846 660.594 674.119 660.594C673.976 660.594 673.835 660.594 673.691 660.597C656.823 660.762 640.016 670.8 631.865 685.57C630.584 687.899 628.176 689.212 625.693 689.212Z" fill="currentcolor"/>
<path d="M382.037 460.214C380.887 460.214 379.721 459.932 378.641 459.337C375.236 457.459 373.998 453.174 375.878 449.77C386.566 430.392 390.402 408.821 402.5 392.903C412 380.403 416.184 378.903 438.684 378.903C453.184 382.903 473.57 429.704 484.542 448.701C486.487 452.068 485.335 456.377 481.966 458.32C478.599 460.273 474.29 459.111 472.344 455.744C463.977 441.259 449.194 394.403 431.5 392.903C418.358 390.903 409.5 406.903 405.5 417.903C400 428.403 392.042 440.903 388.209 456.572C386.928 458.901 384.52 460.214 382.037 460.214Z" fill="currentcolor"/>
<path d="M654.434 756.794C654.204 756.794 653.971 756.784 653.738 756.76C651.403 756.526 649.338 755.147 648.229 753.08C643.903 745.016 634.848 739.41 625.699 739.132C616.543 738.829 607.172 743.898 602.366 751.691C601.071 753.785 598.619 755.106 596.307 755.034C593.841 755.01 591.568 753.7 590.313 751.578C584.405 741.591 573.091 735.092 561.49 735.016C561.426 735.016 561.361 735.016 561.297 735.016C549.761 735.016 538.459 741.357 532.46 751.213C530.438 754.531 526.103 755.591 522.781 753.565C519.459 751.543 518.405 747.21 520.427 743.888C528.978 729.843 545.301 720.834 561.577 720.93C574.764 721.016 587.685 726.952 596.606 736.598C604.419 729.084 615.195 724.778 626.127 725.054C637.328 725.394 648.1 730.659 655.464 738.999C662.672 733.38 671.689 730.103 680.86 729.958C693.039 729.865 705.127 735.116 713.179 744.264C715.75 747.184 715.466 751.634 712.546 754.202C709.628 756.781 705.178 756.489 702.608 753.569C697.245 747.475 689.346 743.834 681.08 744.043C672.964 744.17 665.032 747.981 659.864 754.236C658.518 755.865 656.523 756.794 654.434 756.794Z" fill="currentcolor"/>
<path d="M970.035 731.767C969.805 731.767 969.572 731.758 969.339 731.734C967.004 731.5 964.939 730.12 963.83 728.053C959.504 719.989 950.449 714.383 941.3 714.105C932.144 713.802 922.773 718.872 917.967 726.665C916.672 728.759 914.22 730.08 911.908 730.008C909.442 729.984 907.169 728.674 905.914 726.552C900.006 716.565 888.692 710.066 877.091 709.99C877.027 709.99 876.962 709.99 876.898 709.99C865.362 709.99 854.06 716.331 848.061 726.187C846.039 729.505 841.704 730.564 838.382 728.538C835.06 726.516 834.006 722.184 836.028 718.862C844.579 704.817 860.901 695.808 877.177 695.904C890.364 695.99 903.286 701.926 912.207 711.572C920.02 704.058 930.796 699.751 941.728 700.027C952.929 700.367 963.701 705.633 971.065 713.973C978.273 708.354 987.29 705.077 996.461 704.932C1008.64 704.839 1020.73 710.09 1028.78 719.238C1031.35 722.158 1031.07 726.608 1028.15 729.176C1025.23 731.755 1020.78 731.463 1018.21 728.543C1012.85 722.449 1004.95 718.808 996.681 719.017C988.565 719.144 980.633 722.954 975.465 729.209C974.119 730.838 972.124 731.767 970.035 731.767Z" fill="currentcolor"/>
<path d="M518.409 454.593C515.555 454.593 525.842 456.345 524.782 453.515C519.821 440.265 519.282 433.244 513.282 420.744C508.183 411.757 510.936 411.179 503 395.667C492 374.167 480.793 319.403 465.501 322.903C458.152 324.585 433.023 368.474 425 364.093C418.316 360.437 404.465 354.985 402 350.139L384.432 317.941C381.834 312.831 379.995 306.105 376 302.903C373.223 300.675 370.6 296.138 368 297.903C365.5 297.903 363.558 299.084 359 300.403C353.058 302.122 350 300.403 341.5 297.903C336.5 294.903 341.5 297.475 330 290.975C311 274.475 298.246 275.399 291.653 251.086C289.094 241.653 286.45 231.897 283.228 222.811C280.355 214.706 276.042 204.867 268.136 200.713C258.847 195.833 246.381 200.324 238.861 207.281C229.832 215.641 224.545 227.681 219.435 239.325C218.591 241.247 216.937 242.692 214.92 243.266C212.905 243.844 210.735 243.493 209.005 242.307C205.052 239.601 199.961 240.557 197.173 242.84C193.54 245.818 191.239 250.78 188.804 256.035L148.5 311.896C119 350.139 106.734 340.522 65 389.403C38.7342 473.645 32.5 458.903 23.5 454.145C21.72 450.685 61.542 367.68 65 365.903C100.5 328.95 152.722 300.133 175.494 251.252L176.025 250.11C178.879 243.951 182.117 236.966 188.245 231.946C194.117 227.135 202.126 225.543 209.356 227.31C214.174 216.694 219.993 205.555 229.291 196.944C240.094 186.944 258.91 179.952 274.686 188.244C286.92 194.671 292.771 207.578 296.504 218.107C299.903 227.695 302.62 237.712 305.246 247.4C311.682 271.132 309 260.403 325 275.403C332.5 280.403 331.932 280.903 336.5 283.403C344 288.903 343 288.403 346.5 289.903C352 292.26 351.5 293.358 357.442 290.975C364.956 285.875 375.857 286.862 383.961 293.358C390.32 298.461 394.015 305.721 396.984 311.553L411 341.139C413.115 345.297 422.354 348.691 425 350.139C428.325 351.965 453.499 315.305 453.499 315.305C453.499 315.305 462.781 305.403 478.5 311.553C494.224 309.596 507.282 383.244 518.409 398.093C524.782 414.244 535.88 436.343 540.999 450.016C542.363 453.658 524.516 452.78 520.872 454.145C520.063 454.448 519.229 454.593 518.409 454.593Z" fill="currentcolor"/>
<path d="M249.303 413.092C245.996 413.092 243.048 410.753 242.396 407.383C239.112 390.374 230.009 375.267 220.373 359.273C218.487 356.144 216.606 353.018 214.773 349.885C204.128 331.686 192.386 307.59 196.084 282.558C196.655 278.71 200.249 276.062 204.081 276.619C207.929 277.186 210.587 280.766 210.018 284.614C206.961 305.306 217.45 326.565 226.931 342.773C228.733 345.854 230.583 348.925 232.438 352.003C242.285 368.348 252.468 385.247 256.227 404.715C256.965 408.532 254.466 412.226 250.647 412.965C250.196 413.051 249.747 413.092 249.303 413.092Z" fill="currentcolor"/>
<path d="M337.164 416.638C333.675 416.638 330.647 414.049 330.188 410.5C328.004 393.601 320.917 376.988 310.234 363.714C307.796 360.684 308.274 356.252 311.305 353.813C314.335 351.368 318.766 351.853 321.207 354.883C333.673 370.368 341.608 388.976 344.157 408.692C344.656 412.55 341.934 416.082 338.075 416.581C337.769 416.62 337.465 416.638 337.164 416.638Z" fill="currentcolor"/>
<path d="M707.655 352.715C703.425 352.715 699.235 352.285 695.141 351.405C691.338 350.59 688.917 346.845 689.733 343.042C690.55 339.239 694.288 336.818 698.098 337.636C713.324 340.903 731.254 335.755 744.896 324.2C756.939 314.004 766.487 298.67 772.516 279.848C777.994 262.739 780.281 244.324 782.324 225.383C785.601 195 788.17 165.302 783.689 135.995C782.843 130.469 781.684 124.746 778.95 120.317C776.502 116.359 772.684 113.766 769.218 113.714C766.164 113.841 762.698 115.581 760.153 118.7C757.11 122.435 755.399 127.507 754.25 131.506C748.964 149.88 748.825 169.967 748.689 189.39L748.667 192.612C748.495 215.13 747.721 237.046 740.25 257.611C731.388 281.993 713.654 299.968 692.81 305.694C689.056 306.726 685.186 304.518 684.153 300.769C683.123 297.017 685.329 293.141 689.079 292.11C705.526 287.591 719.706 272.897 727.01 252.8C733.718 234.343 734.419 213.744 734.581 192.502L734.605 189.294C734.746 168.919 734.892 147.848 740.712 127.614C742.232 122.325 744.576 115.516 749.237 109.797C754.449 103.411 761.861 99.6279 769.124 99.6279C769.224 99.6279 769.323 99.6279 769.427 99.6279C777.708 99.7519 785.948 104.845 790.93 112.916C794.991 119.488 796.539 126.868 797.608 133.862C802.35 164.847 799.706 195.549 796.325 226.895C794.203 246.583 791.81 265.775 785.926 284.146C779.096 305.478 768.054 323.047 753.997 334.949C740.405 346.46 723.771 352.715 707.655 352.715Z" fill="currentcolor"/>
<path d="M590.427 356.116C556.289 356.116 522.698 336.012 507.472 305.203C496.715 283.438 495.274 258.389 495.284 236.758C495.296 210.615 497.249 184.253 501.091 158.396C504.741 133.822 515.798 127.236 524.429 126.036C533.138 124.846 542.313 129.416 547.805 137.728C552.439 144.733 553.835 153.041 554.533 159.5C555.845 171.608 555.503 183.761 555.171 195.512C555.018 200.945 554.86 206.565 554.874 212.033C554.926 232.725 557.763 247.223 564.073 259.05C571.771 273.476 585.415 282.799 598.833 282.799C602.722 282.799 605.876 285.953 605.876 289.842C605.876 293.731 602.723 296.885 598.833 296.885C580.282 296.885 561.76 284.636 551.644 265.68C542.096 247.784 540.827 227.628 540.787 212.067C540.771 206.386 540.933 200.657 541.09 195.117C541.424 183.318 541.738 172.173 540.529 161.017C539.968 155.838 538.999 149.951 536.055 145.497C533.612 141.8 529.628 139.51 526.364 139.991C518.716 141.05 515.886 154.661 515.024 160.466C511.282 185.642 509.381 211.31 509.369 236.765C509.359 257.773 510.652 279.851 520.098 298.965C534.492 328.089 568.294 345.92 600.44 341.325C604.285 340.816 607.856 343.454 608.404 347.305C608.952 351.157 606.275 354.723 602.424 355.273C598.438 355.841 594.429 356.116 590.427 356.116Z" fill="currentcolor"/>
<path d="M647.286 550.339C643.397 550.339 640.243 547.185 640.243 543.296V165.652C640.243 161.763 643.396 158.609 647.286 158.609C651.176 158.609 654.329 161.763 654.329 165.652V543.296C654.329 547.185 651.176 550.339 647.286 550.339Z" fill="currentcolor"/>
<path d="M652.149 127.357C648.26 127.357 645.106 124.204 645.106 120.314V33.6187C645.106 29.7297 648.259 26.5757 652.149 26.5757C656.039 26.5757 659.192 29.7287 659.192 33.6187V120.314C659.192 124.203 656.038 127.357 652.149 127.357Z" fill="currentcolor"/>
<path d="M659.988 554.056C653.208 554.056 647.457 552.997 645.135 552.502C629.381 552.495 601.306 551.997 601.306 521.669V45.858C601.306 20.572 621.878 0 647.164 0C659.413 0 670.93 4.77001 679.591 13.432C688.254 22.095 693.023 33.608 693.023 45.857V521.224C694.636 534.553 689.716 542.126 685.272 546.142C678.307 552.44 668.363 554.056 659.988 554.056ZM647.518 538.602C652.702 539.806 669.03 541.859 675.839 535.682C676.917 534.705 680.199 531.731 678.998 522.587C678.958 522.281 678.938 521.975 678.938 521.669V45.858C678.938 37.371 675.633 29.393 669.632 23.392C663.631 17.391 655.651 14.086 647.164 14.086C629.644 14.086 615.392 28.34 615.392 45.858V521.669C615.392 534.816 621.952 538.416 645.912 538.416C646.452 538.416 646.992 538.478 647.518 538.602Z" fill="currentcolor"/>
<path d="M894.036 317.001C879.785 318.112 860.093 322.785 858.368 325.429C857.563 326.617 858.063 329.72 860.016 335.733C864.574 350.023 874.189 363.125 887.216 372.932C897.559 380.709 912.999 387.681 924.873 389.942C927.287 390.402 929.509 390.861 929.814 390.938C930.275 391.091 930.312 392.702 930.12 400.784C929.816 413.886 928.822 422.735 926.561 432.887L920.5 456.403L919.965 457.403C914.965 457.403 918.465 457.403 914.465 457.403C907.465 457.403 905.965 457.403 899.965 457.403C886.465 457.403 894.368 457.403 885.465 457.403C882.965 457.403 881.965 457.403 878.465 457.403C875.965 457.403 876.574 457.403 874.965 457.403C873.854 457.403 872.079 457.233 871.465 457.999C870.354 459.416 870.674 467.403 872.868 467.403C880.174 467.403 884.669 467.403 892.368 467.403C897.885 467.403 903.972 467.403 909.868 467.403C913.929 467.403 917.868 467.403 920.868 467.403C924.868 467.403 928.368 467.503 931.368 467.403C933.868 467.403 933.307 467.403 936.868 467.403C940.393 467.403 940.368 467.403 942.368 467.403C945.049 467.403 943.465 467.403 945.465 467.403C946.965 467.403 948.008 467.403 950.368 467.403C954.368 467.403 956.22 467.503 962.368 467.403C966.447 467.336 966.368 467.403 970.368 467.403C977.368 467.403 981.868 467.403 987.368 467.403C991.334 467.302 993.733 467.503 997.868 467.403C1003.33 467.503 1005.01 467.67 1010.37 467.403C1016.23 467.134 1015.37 467.403 1019.87 467.403C1023.87 467.403 1023.87 467.403 1025.37 467.403C1027.37 467.403 1028.37 467.403 1030.87 467.403C1034.87 467.403 1031.37 458.499 1028.37 457.499C1018.37 457.499 1010.24 457.499 1001.37 457.499C996.237 457.499 996.465 457.499 994.465 457.499C991.465 457.499 988.693 452.887 986.854 448.94C980.539 435.455 976.592 415.074 976.592 396.033V390.784L979.389 390.323C985.941 389.212 996.284 385.649 1003.75 381.932C1021.53 372.967 1032.81 364.499 1041.56 349.499C1045.06 343.499 1051.85 334.853 1050.35 328.912C1048.35 325.429 1039.85 322.894 1029.85 320.175C1018.05 316.919 1016.7 317.036 1005.13 316.999C984.789 316.961 972.299 321.557 956.9 334.853C954.792 336.691 952.954 338.186 952.84 338.186C952.725 338.186 950.887 336.691 948.779 334.853C936.941 324.623 926.942 319.796 913.572 317.727C909.819 317.154 897.867 316.694 894.036 317.001ZM912 325.429C926.251 327.306 935.447 332.091 948.779 344.542C952.112 347.683 954.45 347.683 957.783 344.542C965.407 337.454 973.182 331.479 979.389 328.913C991.341 323.932 1005.71 323.99 1023.06 326.903C1027.51 327.631 1036.99 331.059 1039.06 331.903C1040.85 335.403 1036.35 339.675 1033.85 344.542C1029.25 353.499 1030.34 351.356 1023.06 358.903C1016.05 366.219 1010.31 370.308 1000 375.403C984.14 383.257 970.234 385.074 957.783 381.932C955.408 381.358 952.342 381.358 949.967 381.932C932.575 386.299 910.081 380.69 891.5 365.903C887.133 362.417 880.756 356.422 877.5 351.903C873.362 346.117 867.92 335.964 867.5 331.903C867.386 331.175 867.353 331.412 870.853 328.912C875.756 327.188 882.526 326.156 889.5 325.429C894.939 324.89 907.248 324.815 912 325.429ZM957.783 390.9C959.546 391.205 963.107 391.474 965.674 391.474H968.353L968.853 400.175C969.428 416.035 971.867 427.646 975.353 439.675C976.886 444.885 978.475 450.728 980.353 454.175C981.886 456.972 977.853 457.403 975.965 457.499C970.604 457.773 970.465 457.403 961.465 457.403C958.965 457.403 958.88 457.403 953.465 457.403C950.097 457.403 951.465 457.403 945.465 457.403C938.965 456.903 938.504 457.403 931.853 457.403C929.592 457.019 934.2 437.595 934.353 437.175C934.814 435.988 936.332 427.313 936.868 423.175C937.749 416.317 938.586 409.787 938.853 400.784V391.474L942.076 391.358C945.14 391.205 948.703 390.861 949.967 390.553C951.231 390.247 952.803 390.056 953.414 390.17C954.067 390.286 956.022 390.594 957.783 390.9Z" fill="currentcolor"/>
<path d="M986.328 430.903C985.598 430.903 985.004 427.755 985 423.848C984.996 419.931 985.587 416.738 986.321 416.717C1004.38 416.187 1022.81 415.92 1042.67 415.903C1043.4 415.903 1044 419.079 1044 422.996C1044 426.913 1043.41 430.089 1042.67 430.089C1022.81 430.106 1004.39 430.373 986.335 430.903C986.333 430.903 986.33 430.903 986.328 430.903Z" fill="currentcolor"/>
<path d="M417 164.903C443.066 164.903 464 185.605 464 210.903C464 236.201 443.066 256.903 417 256.903C390.934 256.903 370 236.201 370 210.903C370 185.605 390.934 164.903 417 164.903Z" stroke="currentcolor" stroke-width="12"/>
</svg>
